<?xml version="1.0" encoding="UTF-8"?>
<svg id="HOVER_STATES" data-name="HOVER STATES" xmlns="http://www.w3.org/2000/svg" xmlns:xlink="http://www.w3.org/1999/xlink" viewBox="0 0 600 400">
  <defs>
    <style>
      .cls-1 {
        filter: url(#drop-shadow-2);
      }

      .cls-2 {
        fill: #2c2c2c;
      }

      .cls-3 {
        fill: #dd6f74;
      }

      .cls-4 {
        fill: #fff;
      }

      .cls-5 {
        fill: #b05658;
      }

      .cls-6 {
        fill: #f2eff3;
      }
    </style>
    <filter id="drop-shadow-2" x="107.75" y="78.76" width="199.2" height="87.84" filterUnits="userSpaceOnUse">
      <feOffset dx="1" dy="3"/>
      <feGaussianBlur result="blur" stdDeviation="1"/>
      <feFlood flood-color="#000" flood-opacity=".75"/>
      <feComposite in2="blur" operator="in"/>
      <feComposite in="SourceGraphic"/>
    </filter>
  </defs>
  <g id="Just_Tap_In" data-name="Just Tap In">
    <g>
      <g class="cls-1">
        <path class="cls-6" d="M135.13,78.87h10.33v53.56c0,21.26-10.45,27.79-24.23,27.79-3.8,0-8.43-.83-11.05-1.9l1.54-8.43c2.14.83,5.23,1.54,8.67,1.54,9.26,0,14.73-4.16,14.73-19.84v-52.73Z"/>
        <path class="cls-6" d="M210.43,143.24c0,5.94.12,11.16.47,15.68h-9.26l-.59-9.38h-.24c-2.73,4.63-8.79,10.69-19,10.69-9.03,0-19.83-4.99-19.83-25.18v-33.61h10.45v31.83c0,10.93,3.33,18.29,12.83,18.29,7.01,0,11.88-4.87,13.78-9.5.59-1.54.95-3.45.95-5.34v-35.28h10.45v41.81Z"/>
        <path class="cls-6" d="M226.34,148.23c3.09,2.02,8.55,4.16,13.78,4.16,7.6,0,11.16-3.8,11.16-8.55,0-4.99-2.97-7.72-10.69-10.57-10.33-3.68-15.2-9.38-15.2-16.27,0-9.26,7.48-16.87,19.84-16.87,5.82,0,10.93,1.66,14.13,3.56l-2.61,7.6c-2.26-1.42-6.41-3.33-11.76-3.33-6.18,0-9.62,3.56-9.62,7.84,0,4.75,3.44,6.89,10.93,9.74,9.98,3.8,15.08,8.79,15.08,17.34,0,10.1-7.84,17.22-21.5,17.22-6.3,0-12.11-1.54-16.15-3.92l2.61-7.96Z"/>
        <path class="cls-6" d="M287.39,84.92v16.51h14.97v7.96h-14.97v31c0,7.13,2.02,11.16,7.84,11.16,2.73,0,4.75-.36,6.06-.71l.48,7.84c-2.02.83-5.23,1.43-9.27,1.43-4.87,0-8.79-1.54-11.28-4.4-2.97-3.09-4.04-8.2-4.04-14.96v-31.36h-8.91v-7.96h8.91v-13.78l10.21-2.73Z"/>
      </g>
      <g>
        <g>
          <rect class="cls-5" x="31.44" y="192.98" width="510.2" height="101.51" rx="50.56" ry="50.56"/>
          <rect class="cls-3" x="31.44" y="183.86" width="510.2" height="101.51" rx="50.56" ry="50.56"/>
        </g>
        <g>
          <path class="cls-4" d="M185.41,217h-17.59v49.45h-11.55v-49.45h-17.59v-8.33h46.73v8.33Z"/>
          <path class="cls-4" d="M227.21,250.81h-21.41l-5.44,15.63h-11.64l22.26-58.54h11.05l22.34,58.54h-11.72l-5.44-15.63ZM224.32,242.66l-7.82-22.6-7.9,22.6h15.72Z"/>
          <path class="cls-4" d="M297.98,226.69c0,6.01-1.81,10.52-5.44,13.55-3.63,3.03-9.23,4.55-16.82,4.55h-10.2v21.67h-11.55v-57.77h21.75c14.84,0,22.26,6,22.26,18.01ZM283.79,234.16c1.75-1.59,2.63-4.05,2.63-7.39,0-6.57-3.57-9.86-10.71-9.86h-10.2v19.63h10.2c3.62,0,6.31-.79,8.07-2.38Z"/>
          <path class="cls-4" d="M330.35,208.67h11.55v57.77h-11.55v-57.77Z"/>
          <path class="cls-4" d="M409.53,208.67v57.77l-10.28.09-29.57-40.78.85,19.46v21.24h-11.55v-57.77h10.28l29.57,40.7-.85-20.56v-20.14h11.55Z"/>
        </g>
        <g>
          <g>
            <polygon class="cls-4" points="567.05 279.12 497.62 250.37 526.38 319.79 536.79 299.48 554.23 316.91 564.17 306.97 546.73 289.53 567.05 279.12"/>
            <path class="cls-2" d="M526.38,321.3s-.04,0-.06,0c-.59-.02-1.11-.39-1.34-.94l-28.75-69.42c-.23-.57-.11-1.22.33-1.65.43-.43,1.09-.56,1.65-.33l69.42,28.75c.55.23.91.75.94,1.34.02.59-.3,1.14-.82,1.41l-18.46,9.46,15.96,15.96c.59.59.59,1.55,0,2.15l-9.94,9.94c-.28.28-.67.44-1.07.44s-.79-.16-1.07-.44l-15.96-15.96-9.46,18.46c-.26.51-.78.82-1.35.82ZM500.43,253.17l26.1,63.01,8.92-17.39c.22-.43.64-.73,1.11-.81.48-.08.97.08,1.31.43l16.36,16.36,7.8-7.8-16.36-16.36c-.34-.34-.5-.83-.43-1.31.08-.48.38-.89.81-1.11l17.39-8.92-63.01-26.1Z"/>
          </g>
          <path class="cls-2" d="M510.71,243.99c-.39,0-.78-.15-1.07-.44-.59-.59-.59-1.55,0-2.15l8.95-8.95c.59-.59,1.55-.59,2.15,0,.59.59.59,1.55,0,2.15l-8.95,8.95c-.3.3-.68.44-1.07.44Z"/>
          <path class="cls-2" d="M500.22,239.64c-.84,0-1.52-.68-1.52-1.52v-12.66c0-.84.68-1.52,1.52-1.52s1.52.68,1.52,1.52v12.66c0,.84-.68,1.52-1.52,1.52Z"/>
          <path class="cls-2" d="M489.73,243.99c-.39,0-.78-.15-1.07-.44l-8.95-8.95c-.59-.59-.59-1.55,0-2.15.59-.59,1.55-.59,2.15,0l8.95,8.95c.59.59.59,1.55,0,2.15-.3.3-.68.44-1.07.44Z"/>
          <path class="cls-2" d="M485.38,254.48h-12.66c-.84,0-1.52-.68-1.52-1.52s.68-1.52,1.52-1.52h12.66c.84,0,1.52.68,1.52,1.52s-.68,1.52-1.52,1.52Z"/>
          <path class="cls-2" d="M480.78,273.93c-.39,0-.78-.15-1.07-.44-.59-.59-.59-1.55,0-2.15l8.95-8.95c.59-.59,1.55-.59,2.15,0,.59.59.59,1.55,0,2.15l-8.95,8.95c-.3.3-.68.44-1.07.44Z"/>
        </g>
      </g>
    </g>
  </g>
</svg>