<?xml version="1.0" encoding="UTF-8"?>
<svg id="HOVER_STATES" data-name="HOVER STATES" xmlns="http://www.w3.org/2000/svg" xmlns:xlink="http://www.w3.org/1999/xlink" viewBox="0 0 600 400">
  <defs>
    <style>
      .cls-1 {
        filter: url(#drop-shadow-2);
      }

      .cls-2 {
        fill: #fff;
      }

      .cls-3 {
        fill: #fdc30d;
      }
    </style>
    <filter id="drop-shadow-2" x="22.85" y="120.38" width="556.8" height="159.08" filterUnits="userSpaceOnUse">
      <feOffset dx="1" dy="2"/>
      <feGaussianBlur result="blur" stdDeviation=".5"/>
      <feFlood flood-color="#000" flood-opacity=".75"/>
      <feComposite in2="blur" operator="in"/>
      <feComposite in="SourceGraphic"/>
    </filter>
  </defs>
  <g id="TITLE_-_YND" data-name="TITLE - YND" class="cls-1">
    <g id="YOUR_NEIGHBORHOOD" data-name="YOUR NEIGHBORHOOD">
      <path class="cls-3" d="M61.42,221.45c-2.67,0-4.81-.54-6.42-1.62-1.62-1.08-2.76-2.5-3.45-4.25-.68-1.76-1.02-3.69-1.02-5.78,0-3.69.84-7.3,2.51-10.85,1.67-3.55,3.53-6.79,5.57-9.74,3.01-4.37,6.03-8.01,9.06-10.93,3.03-2.92,6.28-5.52,9.74-7.78-.11-.85-.26-2.18-.43-4-.17-1.81-.38-3.81-.64-6-.26-2.18-.5-4.32-.72-6.42-.23-2.1-.43-3.88-.6-5.36-.45,1.48-.97,3.04-1.53,4.68-.57,1.65-1.16,3.38-1.79,5.19-1.36,3.69-2.89,7.26-4.59,10.72-1.7,3.46-3.59,6.55-5.66,9.27-2.07,2.72-4.31,4.89-6.72,6.51-2.41,1.62-4.95,2.42-7.61,2.42h-.68c-2.72-.17-4.57-1.36-5.53-3.57-.97-2.21-1.45-4.79-1.45-7.74,0-2.32.18-4.68.55-7.06.37-2.38.78-4.59,1.23-6.64.45-2.04.79-3.6,1.02-4.68.11-.57.34-1.69.68-3.36.34-1.67.72-3.67,1.15-6,.43-2.32.78-4.78,1.06-7.36.28-2.58.43-5,.43-7.27,0-2.84-.31-5.22-.94-7.15-.62-1.93-1.79-2.89-3.49-2.89-1.82,0-3.49.75-5.02,2.25-1.53,1.5-2.91,3.46-4.13,5.87-1.22,2.41-2.27,5.03-3.15,7.87-.88,2.84-1.55,5.63-2,8.38-.45,2.75-.68,5.18-.68,7.27,0,1.42.11,2.62.34,3.62.23.99.6,1.63,1.11,1.91.4.23.6.51.6.85,0,.68-.37,1.02-1.11,1.02-.4,0-.77-.17-1.11-.51-.74-.85-1.36-2.27-1.87-4.25-.51-1.98-.77-4.28-.77-6.89,0-1.59.11-3.23.34-4.93.23-1.7.57-3.43,1.02-5.19.62-2.33,1.5-4.69,2.64-7.1,1.13-2.41,2.55-4.65,4.25-6.72,1.7-2.07,3.7-3.73,6-4.98,2.3-1.25,4.89-1.87,7.78-1.87,2.04,0,3.63.53,4.76,1.57,1.13,1.05,1.94,2.45,2.42,4.21.48,1.76.72,3.72.72,5.87,0,2.55-.24,5.2-.72,7.95-.48,2.75-1.02,5.28-1.62,7.57-.6,2.3-1.06,4.1-1.4,5.4-.17.68-.5,1.84-.98,3.49-.48,1.65-.99,3.56-1.53,5.74-.54,2.18-.99,4.41-1.36,6.68-.37,2.27-.55,4.4-.55,6.38,0,2.1.31,3.87.94,5.32.62,1.45,1.73,2.23,3.32,2.34h.43c2.04,0,4.08-.82,6.13-2.47,2.04-1.64,3.98-3.87,5.83-6.68,1.84-2.81,3.53-5.98,5.06-9.53,1.53-3.54,2.81-7.19,3.83-10.93.91-3.29,1.53-6.41,1.87-9.36.34-2.95.62-5.57.85-7.87.23-2.3.58-4.1,1.06-5.4.48-1.3,1.29-1.98,2.42-2.04.23,0,.54.28.94.85h.09c.17,0,.34.58.51,1.74.17,1.16.31,2.51.43,4.04.11,1.53.21,2.91.3,4.13.08,1.22.16,1.89.21,2,.17.4.38,1.32.64,2.76.26,1.45.58,3.42.98,5.91.45,2.95.88,5.86,1.28,8.72.4,2.86.77,5.66,1.11,8.38l.34-.17c.79-.45,1.53-.74,2.21-.85.68-.11,1.25-.17,1.7-.17s.86.06,1.23.17c.37.11.58.4.64.85,0,.23-.13.4-.38.51-.26.11-.53.17-.81.17-.79.06-1.63.26-2.51.6-.88.34-1.57.68-2.08,1.02.34,3.46.51,7.43.51,11.91,0,3.01-.21,6.31-.64,9.91-.43,3.6-1.14,7.19-2.13,10.76-.99,3.57-2.35,6.83-4.08,9.78-1.73,2.95-3.9,5.32-6.51,7.1-2.61,1.79-5.76,2.68-9.44,2.68ZM61.76,219.15c2.84,0,5.23-.7,7.19-2.08,1.96-1.39,3.56-3.28,4.81-5.66,1.25-2.38,2.23-5.05,2.93-8,.71-2.95,1.2-6,1.49-9.15.28-3.15.43-6.2.43-9.14,0-2.61-.07-5.03-.21-7.27-.14-2.24-.3-4.1-.47-5.57-2.44,1.53-5.01,3.69-7.7,6.47-2.69,2.78-5.22,5.87-7.57,9.27-2.35,3.4-4.25,6.9-5.7,10.51-1.45,3.6-2.17,6.99-2.17,10.17,0,1.7.23,3.35.68,4.93.45,1.59,1.19,2.91,2.21,3.96,1.02,1.05,2.38,1.57,4.08,1.57ZM98.68,186.57c-1.93,0-3.5-.51-4.72-1.53-1.22-1.02-2.16-2.35-2.81-4-.65-1.64-1.11-3.45-1.36-5.4-.26-1.96-.38-3.87-.38-5.74,0-1.42.06-2.74.17-3.96.11-1.22.2-2.28.26-3.19.28-2.38.91-4.78,1.87-7.19.96-2.41,2.38-4.42,4.25-6.04,1.87-1.62,4.34-2.42,7.4-2.42,2.1,0,3.73.68,4.89,2.04,1.16,1.36,1.98,3.13,2.47,5.32.48,2.18.72,4.47.72,6.85s-.16,4.69-.47,6.93c-.31,2.24-.67,4.04-1.06,5.4-.45,1.76-1.19,3.65-2.21,5.66-1.02,2.01-2.28,3.73-3.79,5.15-1.5,1.42-3.25,2.13-5.23,2.13ZM101.49,181.89c1.19,0,2.2-.57,3.02-1.7.82-1.13,1.52-2.44,2.08-3.91.57-1.47.96-2.72,1.19-3.74.23-.91.41-2.04.55-3.4.14-1.36.21-2.81.21-4.34,0-2.32-.26-4.61-.77-6.85-.51-2.24-1.45-3.81-2.81-4.72-.68-.45-1.02-.99-1.02-1.62,0-.45.17-.88.51-1.28.34-.4.62-.68.85-.85-.57-.4-1.11-.6-1.62-.6-1.02,0-1.93.57-2.72,1.7-.8,1.13-1.46,2.5-2,4.08-.54,1.59-.96,3.11-1.28,4.55-.31,1.45-.5,2.45-.55,3.02-.06.63-.14,1.57-.26,2.85-.11,1.28-.17,2.68-.17,4.21,0,1.93.13,3.86.38,5.78.26,1.93.72,3.55,1.4,4.85.68,1.31,1.67,1.96,2.98,1.96ZM120.54,186.05c-1.25,0-2.37-.51-3.36-1.53-.99-1.02-1.72-2.58-2.17-4.68-.23-.96-.38-2.18-.47-3.66-.08-1.47-.13-3.03-.13-4.68,0-2.5.1-5.07.3-7.74.2-2.66.47-5.12.81-7.36.34-2.24.74-3.96,1.19-5.15.28-.68.81-1.28,1.57-1.79s1.77-.77,3.02-.77c.85,0,1.7.11,2.55.34-.17.62-.5,2.1-.98,4.42-.48,2.33-.89,4.91-1.23,7.74-.23,1.99-.43,4.01-.6,6.08-.17,2.07-.26,4.01-.26,5.83,0,2.33.2,4.27.6,5.83.4,1.56,1.05,2.34,1.96,2.34,1.08,0,2.03-.64,2.85-1.91.82-1.28,1.54-2.88,2.17-4.81.62-1.93,1.11-3.86,1.45-5.78.51-2.84.96-5.88,1.36-9.15.4-3.26.85-6.05,1.36-8.38.17-.68.67-1.28,1.49-1.79.82-.51,1.86-.77,3.11-.77.85,0,1.7.11,2.55.34-.45,1.25-.89,3.12-1.32,5.61-.43,2.5-.78,5.25-1.06,8.25-.28,3.01-.43,5.98-.43,8.93,0,1.47.07,3.09.21,4.85.14,1.76.45,3.26.94,4.51.48,1.25,1.18,1.87,2.08,1.87h.09c.45,0,.95-.23,1.49-.68.54-.45,1.12-1.3,1.74-2.55.45-.79.85-1.73,1.19-2.81.34-1.08.71-2.24,1.11-3.49.23-.51.45-.77.68-.77.28,0,.43.34.43,1.02v.34c-.11,1.48-.51,3.15-1.19,5.02-.68,1.87-1.63,3.49-2.85,4.85-1.22,1.36-2.68,2.04-4.38,2.04-1.93,0-3.46-.69-4.59-2.08-1.14-1.39-1.96-3.09-2.47-5.1-.51-2.01-.82-3.96-.94-5.83-.4,1.48-.85,2.95-1.36,4.42-.51,1.48-1.14,2.78-1.87,3.91-2.04,3.12-4.25,4.68-6.64,4.68ZM161.55,186.14c-1.87,0-3.35-.61-4.42-1.83-1.08-1.22-1.83-2.81-2.25-4.76-.43-1.96-.64-4.07-.64-6.34,0-2.44.16-4.84.47-7.19.31-2.35.65-4.44,1.02-6.25.37-1.81.64-3.06.81-3.74-1.59-.11-2.84-.37-3.74-.77-.91-.4-1.67-.88-2.3-1.45-.23,2.72-.58,5.64-1.06,8.76-.48,3.12-1.04,6.11-1.66,8.98-.62,2.86-1.31,5.32-2.04,7.36-.23.74-.6,1.11-1.11,1.11-.4,0-.6-.26-.6-.77,0-.11.01-.26.04-.43.03-.17.07-.34.13-.51.91-2.61,1.67-5.46,2.3-8.55.62-3.09,1.11-6.08,1.45-8.98.34-2.89.51-5.3.51-7.23v-.94c-1.42-.62-2.45-1.53-3.11-2.72-.65-1.19-.98-2.33-.98-3.4,0-.79.16-1.5.47-2.13.31-.62.78-.94,1.4-.94h.17c.79,0,1.5.55,2.13,1.66.62,1.11,1.13,2.33,1.53,3.66.4,1.33.6,2.4.6,3.19.68.51,1.43.88,2.25,1.11.82.23,1.52.34,2.08.34.74,0,1.22-.11,1.45-.34.45-.45,1.01-1.11,1.66-1.96.65-.85,1.69-1.28,3.11-1.28.96,0,2.13.28,3.49.85-.68,1.42-1.31,3.02-1.87,4.81-.57,1.79-1.05,3.67-1.45,5.66-.06.45-.2,1.36-.43,2.72-.23,1.36-.43,2.92-.6,4.68-.17,1.76-.26,3.52-.26,5.27,0,2.5.27,4.69.81,6.59.54,1.9,1.54,2.85,3.02,2.85.91,0,1.7-.37,2.38-1.11.68-.74,1.28-1.66,1.79-2.76s.94-2.18,1.28-3.23c.34-1.05.6-1.89.77-2.51.11-.51.34-.77.68-.77.28,0,.43.31.43.94v.43c0,2.61-.47,4.81-1.4,6.59-.94,1.79-2.14,3.12-3.62,4-1.48.88-3.03,1.32-4.68,1.32Z"/>
      <path class="cls-2" d="M211.9,151.06v30.81l-7.34.05-14.04-19.3.59,10.01v9.24h-8.15v-30.81h7.34l14.04,19.16-.59-9.88v-9.29h8.15ZM240.94,176.21v5.66h-20.89v-30.81h19.98v5.66h-11.82v6.03h10.01v5.66h-10.01v7.79h12.73ZM247.29,151.06h8.16v30.81h-8.16v-30.81ZM289.69,166.65v13.64c-2.72,1.18-6.75,2.13-10.87,2.13-11.73,0-17.26-7.66-17.26-15.99s5.93-15.86,17.62-15.86c3.76,0,6.93.86,9.24,2.04l-1.63,5.71c-1.72-.86-4.17-1.9-7.61-1.9-6.12,0-9.47,4.53-9.47,10.06s3.04,10.1,9.11,10.1c1.04,0,2.04-.09,2.99-.23v-9.7h7.88ZM324.76,151.06v30.81h-8.15v-13.41h-12.64v13.41h-8.15v-30.81h8.15v11.64h12.64v-11.64h8.15ZM350.99,165.56c4.85.95,7.34,3.99,7.34,7.97,0,5.57-4.53,8.34-13.14,8.34h-12.32v-30.81h12.32c7.7,0,11.78,2.17,11.78,7.52,0,3.26-1.99,5.98-5.94,6.98h-.04ZM341.02,156.73v6.03h4.17c2.22,0,3.62-.86,3.62-3.13s-1.41-2.9-3.62-2.9h-4.17ZM350.17,172.31c0-2.81-1.86-3.9-4.98-3.9h-4.17v7.79h4.17c3.13,0,4.98-1.09,4.98-3.9ZM362.23,166.47c0-8.61,5.71-15.9,16.72-15.9s16.72,7.34,16.72,15.9-5.71,15.95-16.72,15.95-16.72-7.34-16.72-15.95ZM387.51,166.47c0-5.71-3.08-10.06-8.56-10.06s-8.56,4.35-8.56,10.06,3.08,10.1,8.56,10.1,8.56-4.39,8.56-10.1ZM414.28,170.5h-4.35v11.33h-8.15v-30.81h12.32c8.88,0,12.69,2.9,12.69,9.29,0,4.21-1.54,6.98-4.58,8.43l8.65,13.14h-9.42l-7.16-11.37ZM409.93,164.83h4.17c3.26,0,4.53-1.31,4.53-4.08s-1.27-4.08-4.53-4.08h-4.17v8.15ZM464.34,151.06v30.81h-8.16v-13.41h-12.64v13.41h-8.16v-30.81h8.16v11.64h12.64v-11.64h8.16ZM470.46,166.47c0-8.61,5.71-15.9,16.72-15.9s16.72,7.34,16.72,15.9-5.71,15.95-16.72,15.95-16.72-7.34-16.72-15.95ZM495.74,166.47c0-5.71-3.08-10.06-8.56-10.06s-8.56,4.35-8.56,10.06,3.08,10.1,8.56,10.1,8.56-4.39,8.56-10.1ZM507.97,166.47c0-8.61,5.71-15.9,16.72-15.9s16.72,7.34,16.72,15.9-5.71,15.95-16.72,15.95-16.72-7.34-16.72-15.95ZM533.25,166.47c0-5.71-3.08-10.06-8.56-10.06s-8.56,4.35-8.56,10.06,3.08,10.1,8.56,10.1,8.56-4.39,8.56-10.1ZM576.61,166.42c0,8.88-5.62,15.45-16.31,15.45h-12.78v-30.81h12.78c10.69,0,16.31,6.71,16.31,15.36ZM568.46,166.47c0-5.66-2.94-9.65-8.16-9.65h-4.62v19.3h4.62c5.21,0,8.16-3.9,8.16-9.65Z"/>
      <path id="DASHBOARD" class="cls-2" d="M162.66,242.16c0,18.22-10.41,31.69-30.67,31.69h-22.12v-63.2h22.12c20.26,0,30.67,13.75,30.67,31.51ZM154.11,242.25c0-14.87-7.81-25.09-22.12-25.09h-13.57v50.19h13.57c14.31,0,22.12-9.94,22.12-25.09ZM219.07,273.85c-2.42.84-4.28,1.21-6.69,1.3-4.46,0-8.27-1.39-9.11-6.78-5.2,4-10.59,6.78-16.36,6.78-7.9,0-13.29-5.21-13.29-11.9,0-9.95,8.55-13.38,22.58-17.38l6.88-1.95v-3.62c0-5.95-1.77-11.15-8.46-11.15-5.86,0-10.5,1.77-17.38,9.02l-3.44-5.2c6.32-6.32,13.57-10.41,22.4-10.41,10.5,0,15.15,4.93,15.15,18.12v24.26c0,2.69.93,3.81,3.07,3.81,1.11,0,2.42-.37,4-.93l.65,6.04ZM188.77,268.83c4.55,0,9.02-2.51,14.41-6.41v-12.92l-5.3,1.58c-11.52,3.53-15.89,6.32-15.89,11.62,0,4.46,2.97,6.13,6.78,6.13ZM224.74,270.79l2.51-6.04c4.09,2.88,9.11,4.37,15.06,4.37s10.87-2.88,10.87-8.55c0-11.15-26.67-7.25-26.67-23.79,0-9.57,7.62-14.22,17.47-14.22,6.23,0,11.43,1.67,15.8,4.55l-2.42,6.04c-3.81-2.69-8.36-4.18-13.2-4.18-5.3,0-9.48,2.14-9.48,7.16,0,11.24,26.67,6.88,26.67,24.16,0,9.39-7.53,15.24-19.05,15.24-7.71,0-13.01-1.77-17.57-4.74ZM313.96,239.28v34.57h-8.27v-33.83c0-7.62-2.04-10.87-8.27-10.87-4.65,0-9.39,2.23-14.78,6.41v38.29h-8.27v-74.35h8.27v29.46c5.67-4.18,11.34-6.41,16.91-6.41,11.8,0,14.41,6.97,14.41,16.73ZM353.18,222.55c12.17,0,20.63,9.11,20.63,25.37,0,18.59-10.5,27.42-23.98,27.42-5.39,0-9.48-1.77-12.45-3.72l-1.3,2.32h-5.11v-74.44h8.27v27.88c3.72-2.88,8.36-4.83,14.03-4.83h-.09ZM349.18,268.93c11.43,0,16.17-8.64,16.17-21.1,0-14.31-6.51-18.96-12.73-18.96-5.48,0-9.02,1.58-13.48,5.02v32.43c2.51,1.49,5.76,2.7,10.04,2.7v-.09ZM383.29,249.13c0-14.5,7.71-26.58,23.89-26.58s23.79,12.64,23.79,26.39-7.71,26.58-23.79,26.58-23.89-12.17-23.89-26.39ZM422.51,249.04c0-11.71-5.21-20.07-15.43-20.07s-15.33,8.36-15.33,20.07,5.11,20.07,15.33,20.07,15.43-8.18,15.43-20.07ZM486.26,273.85c-2.42.84-4.28,1.21-6.69,1.3-4.46,0-8.27-1.39-9.11-6.78-5.2,4-10.59,6.78-16.36,6.78-7.9,0-13.29-5.21-13.29-11.9,0-9.95,8.55-13.38,22.58-17.38l6.88-1.95v-3.62c0-5.95-1.77-11.15-8.46-11.15-5.86,0-10.5,1.77-17.38,9.02l-3.44-5.2c6.32-6.32,13.57-10.41,22.4-10.41,10.5,0,15.15,4.93,15.15,18.12v24.26c0,2.69.93,3.81,3.07,3.81,1.12,0,2.42-.37,4-.93l.65,6.04ZM455.96,268.83c4.55,0,9.02-2.51,14.41-6.41v-12.92l-5.3,1.58c-11.53,3.53-15.89,6.32-15.89,11.62,0,4.46,2.97,6.13,6.78,6.13ZM522.5,230.27c-5.39,0-10.41,1.3-17.57,7.16v36.34h-8.27v-49.63h6.41l1.49,6.69c6.41-6.23,11.99-8.18,17.94-8.18v7.62ZM571.85,199.5v74.35h-6.41l-.93-4.18c-3.9,3.35-8.83,5.86-14.96,5.86-12.08,0-20.63-9.2-20.63-25.65,0-18.77,10.78-27.32,25.37-27.32,3.81,0,6.88.65,9.29,1.58v-24.63h8.27ZM550.11,269.02c5.48,0,9.02-1.67,13.57-5.2v-33.27c-2.32-.93-5.3-1.58-9.02-1.58-12.08,0-17.29,8.55-17.29,20.91,0,14.5,6.5,19.15,12.73,19.15Z"/>
    </g>
  </g>
</svg>